<svg width="100" height="100" viewBox="0 0 100 100" fill="none" xmlns="http://www.w3.org/2000/svg">
<g clip-path="url(#clip0_269_26203)">
<path d="M80 0H20C8.9543 0 0 8.9543 0 20V80C0 91.0457 8.9543 100 20 100H80C91.0457 100 100 91.0457 100 80V20C100 8.9543 91.0457 0 80 0Z" fill="white"/>
<path d="M58.8763 61.1788L74.5794 60.9913C74.1419 66.1788 72.4701 70.6007 69.5638 74.2569C66.6888 77.8819 63.0482 80.6319 58.6419 82.5069C54.2669 84.3819 49.5951 85.2725 44.6263 85.1788C39.9076 85.085 35.9388 84.1163 32.7201 82.2725C29.5013 80.3975 26.9701 77.8975 25.1263 74.7725C23.2826 71.6163 22.0638 68.085 21.4701 64.1788C20.8763 60.2413 20.8451 56.1788 21.3763 51.9913L21.8919 48.2882C22.5169 43.9444 23.6732 39.7725 25.3607 35.7725C27.0482 31.7413 29.2513 28.1475 31.9701 24.9913C34.7201 21.835 37.9857 19.3663 41.7669 17.585C45.5482 15.7725 49.8294 14.9132 54.6107 15.0069C59.7044 15.1007 64.0326 16.1632 67.5951 18.1944C71.1888 20.2257 73.9701 23.0694 75.9388 26.7257C77.9388 30.3819 79.0638 34.6944 79.3138 39.6632L63.3294 39.6163C63.4232 37.21 63.1888 35.1475 62.6263 33.4288C62.0638 31.71 61.0638 30.3819 59.6263 29.4444C58.2201 28.4757 56.2357 27.9444 53.6732 27.8507C50.8919 27.7569 48.5638 28.335 46.6888 29.585C44.8451 30.8038 43.3451 32.4444 42.1888 34.5069C41.0326 36.5694 40.1419 38.8038 39.5169 41.21C38.9232 43.6163 38.4701 45.9444 38.1576 48.1944L37.6888 52.0382C37.4701 53.8819 37.2669 55.96 37.0794 58.2725C36.8919 60.5538 36.9701 62.7569 37.3138 64.8819C37.6576 66.9757 38.4544 68.7257 39.7044 70.1319C40.9544 71.5382 42.9076 72.2882 45.5638 72.3819C48.0638 72.4444 50.2357 72.0538 52.0794 71.21C53.9232 70.335 55.4076 69.0538 56.5326 67.3663C57.6888 65.6475 58.4701 63.585 58.8763 61.1788Z" fill="#FD3D0C"/>
</g>
<defs>
<clipPath id="clip0_269_26203">
<rect width="100" height="100" fill="white"/>
</clipPath>
</defs>
</svg>
